<svg width="186" height="194" viewBox="0 0 186 194" fill="none" xmlns="http://www.w3.org/2000/svg">
<circle cx="125.842" cy="113.425" r="1.12533" transform="rotate(33.6142 125.842 113.425)" fill="#F6EEDD" stroke="#F6EEDD" stroke-width="0.372773" stroke-linecap="round" stroke-linejoin="round"/>
<circle cx="55.2136" cy="81.4942" r="1.12533" transform="rotate(33.6142 55.2136 81.4942)" fill="#F6EEDD" stroke="#F6EEDD" stroke-width="0.372773" stroke-linecap="round" stroke-linejoin="round"/>
<circle cx="105.648" cy="48.7354" r="1.12533" transform="rotate(33.6142 105.648 48.7354)" fill="#F6EEDD" stroke="#F6EEDD" stroke-width="0.372773" stroke-linecap="round" stroke-linejoin="round"/>
<circle cx="76.7547" cy="142.634" r="1.12533" transform="rotate(-146.386 76.7547 142.634)" fill="#F6EEDD" stroke="#F6EEDD" stroke-width="0.372773" stroke-linecap="round" stroke-linejoin="round"/>
<circle cx="81.4634" cy="74.1557" r="1.024" transform="rotate(33.6142 81.4634 74.1557)" fill="#F6EEDD" stroke="#F6EEDD" stroke-width="0.372773" stroke-linecap="round" stroke-linejoin="round"/>
<circle cx="112.496" cy="89.2658" r="1.024" transform="rotate(33.6142 112.496 89.2658)" fill="#F6EEDD" stroke="#F6EEDD" stroke-width="0.372773" stroke-linecap="round" stroke-linejoin="round"/>
<circle cx="63.6145" cy="102.857" r="1.024" transform="rotate(33.6142 63.6145 102.857)" fill="#F6EEDD" stroke="#F6EEDD" stroke-width="0.372773" stroke-linecap="round" stroke-linejoin="round"/>
<circle cx="98.6816" cy="115.58" r="1.024" transform="rotate(33.6142 98.6816 115.58)" fill="#F6EEDD" stroke="#F6EEDD" stroke-width="0.372773" stroke-linecap="round" stroke-linejoin="round"/>
<path d="M51.5881 70.3274C43.8149 63.6056 36.7462 70.1225 34.1835 74.2212C32.9093 76.9905 32.419 83.3792 40.6516 86.7792C43.3526 87.8947 47.1118 88.7133 51.2269 89.306C39.9648 86.0767 40.0527 79.716 41.5045 76.9393C46.2813 69.7907 52.9961 71.7559 56.1142 73.833C54.4866 72.6846 52.9545 71.509 51.5881 70.3274Z" fill="#F6EEDD"/>
<path d="M78.0883 86.0005C73.5531 84.0358 64.0644 79.3741 56.4926 74.0983M74.953 90.717C69.5753 90.7869 59.6548 90.5201 51.2269 89.306M56.4926 74.0983C56.3733 74.0101 56.247 73.9214 56.1142 73.833M56.4926 74.0983C56.3659 74.01 56.2398 73.9216 56.1142 73.833M51.2269 89.306C47.1118 88.7133 43.3526 87.8947 40.6516 86.7792C32.419 83.3792 32.9093 76.9905 34.1835 74.2212C36.7462 70.1225 43.8149 63.6056 51.5881 70.3274C52.9545 71.509 54.4866 72.6846 56.1142 73.833M51.2269 89.306C39.9648 86.0767 40.0527 79.716 41.5045 76.9393C46.2813 69.7907 52.9961 71.7559 56.1142 73.833M52.8842 76.2925C50.2435 75.2743 48.4031 76.5306 47.9251 80.4766C48.0864 82.8545 48.8444 83.9263 51.0933 84.6629" stroke="#F6EEDD" stroke-width="1.49109" stroke-linecap="round" stroke-linejoin="round"/>
<path d="M77.4323 61.2476C78.0734 61.1337 86.922 61.1759 91.5967 75.4544C89.1715 71.8892 82.9765 65.0368 77.5977 66.1485C72.219 67.2602 72.2986 74.2111 73.0107 77.5476C70.3776 72.2785 68.272 63.1901 77.4323 61.2476Z" fill="#F6EEDD"/>
<path d="M73.6477 78.7339C73.4357 78.3667 73.2215 77.9694 73.0107 77.5476M92.3294 77.9646C92.1008 77.0816 91.8557 76.2457 91.5967 75.4544M91.5967 75.4544C86.922 61.1759 78.0734 61.1337 77.4323 61.2476C68.272 63.1901 70.3776 72.2785 73.0107 77.5476M91.5967 75.4544C89.1715 71.8892 82.9765 65.0368 77.5977 66.1485C72.219 67.2602 72.2986 74.2111 73.0107 77.5476" stroke="#F6EEDD" stroke-width="1.49109" stroke-linecap="round" stroke-linejoin="round"/>
<path d="M98.2611 27.7186C101.853 20.751 107.911 18.9737 110.49 18.9559C119.059 21.0367 123.197 30.6865 123.144 33.4441C123.461 35.4241 121.564 43.3077 119.277 48.4146C119.104 43.9071 116.959 33.9882 109.762 30.3732C102.564 26.7581 96.2471 37.4125 93.9883 43.1916C94.6802 37.359 96.1761 31.7627 98.2611 27.7186Z" fill="#F6EEDD"/>
<path d="M97.0046 82.3855C97.4218 79.0121 97.6318 70.2726 95.1344 62.3012C93.4621 56.9636 93.1902 49.9203 93.9883 43.1916M101.569 83.1507C105.918 74.0584 113.756 58.6677 118.424 50.1486C118.712 49.6227 118.997 49.0395 119.277 48.4146M97.624 44.9662C99.1489 41.8781 103.356 36.1055 107.984 37.7203C112.613 39.3351 113.712 45.5078 113.683 48.3923M93.9883 43.1916C94.6802 37.359 96.1761 31.7627 98.2611 27.7186C101.853 20.751 107.911 18.9737 110.49 18.9559C119.059 21.0367 123.197 30.6865 123.144 33.4441C123.461 35.4241 121.564 43.3077 119.277 48.4146M93.9883 43.1916C96.2471 37.4125 102.564 26.7581 109.762 30.3732C116.959 33.9882 119.104 43.9071 119.277 48.4146" stroke="#F6EEDD" stroke-width="1.49109" stroke-linecap="round" stroke-linejoin="round"/>
<path d="M84.1412 163.651C80.549 170.618 74.4917 172.396 71.9121 172.413C63.3429 170.332 59.2057 160.683 59.2579 157.925C58.9416 155.945 60.8385 148.062 63.1252 142.955C63.2981 147.462 65.4431 157.381 72.6407 160.996C79.8384 164.611 86.1553 153.957 88.414 148.178C87.7222 154.01 86.2262 159.607 84.1412 163.651Z" fill="#F6EEDD"/>
<path d="M85.3977 108.984C84.9806 112.357 84.7706 121.097 87.268 129.068C88.9402 134.406 89.2122 141.449 88.414 148.178M80.8334 108.219C76.4838 117.311 68.6468 132.702 63.9788 141.221C63.6906 141.746 63.405 142.33 63.1252 142.955M84.7783 146.403C83.2534 149.491 79.0465 155.264 74.418 153.649C69.7894 152.034 68.6903 145.861 68.7193 142.977M88.414 148.178C87.7222 154.01 86.2262 159.607 84.1412 163.651C80.549 170.618 74.4917 172.396 71.9121 172.413C63.3429 170.332 59.2057 160.683 59.2579 157.925C58.9416 155.945 60.8385 148.062 63.1252 142.955M88.414 148.178C86.1553 153.957 79.8384 164.611 72.6407 160.996C65.4431 157.381 63.2981 147.462 63.1252 142.955" stroke="#F6EEDD" stroke-width="1.49109" stroke-linecap="round" stroke-linejoin="round"/>
<path d="M109.23 82.2716C114.709 80.0774 123.622 78.7654 124.8 87.6895C125.948 96.3882 116.88 97.6198 110.625 97.042C113.897 96.8094 120.301 94.8157 119.739 88.7023C119.178 82.5889 112.499 81.8679 109.23 82.2716Z" fill="#F6EEDD"/>
<path d="M107.717 82.939C108.181 82.7139 108.689 82.4884 109.23 82.2716M108.4 96.7451C109.079 96.8656 109.829 96.9685 110.625 97.042M109.23 82.2716C114.709 80.0774 123.622 78.7654 124.8 87.6895C125.948 96.3882 116.88 97.6198 110.625 97.042M109.23 82.2716C112.499 81.8679 119.178 82.5889 119.739 88.7023C120.301 94.8157 113.897 96.8094 110.625 97.042" stroke="#F6EEDD" stroke-width="1.49109" stroke-linecap="round" stroke-linejoin="round"/>
<path d="M62.3288 94.815C56.87 95.5949 49.3858 99.4879 50.6658 106.735C53.5287 114.463 63.3611 113.234 69.296 110.553C65.5171 112.26 59.1838 109.702 56.2756 106.117C53.3674 102.532 57.9994 95.9972 62.3288 94.815Z" fill="#F6EEDD"/>
<path d="M78.5462 92.9767C80.8424 92.686 86.4686 92.7796 90.6036 95.4793M96.6906 97.933C96.5942 99.8902 95.9268 104.518 94.0291 107.373M101.094 100.431C101.194 100.926 101.341 105.68 98.9988 110.125M76.0114 101.766C78.262 100.783 83.9992 99.4596 88.943 102.032M93.3723 92.0517C93.7401 92.0512 96.6395 91.2834 100.931 94.8713M94.1432 86.5612C95.869 86.3609 100.142 86.6042 103.428 89.1805M81.9546 81.2153C82.167 81.3565 83.8693 84.6931 83.1669 88.514M89.3975 81.9977C89.2724 83.7523 88.7937 87.6238 87.8788 89.0737M66.2809 94.9093C65.3026 94.6239 63.8996 94.5906 62.3288 94.815M72.4129 108.746C71.6116 109.366 70.5393 109.991 69.296 110.553M62.3288 94.815C56.87 95.5949 49.3858 99.4879 50.6658 106.735C53.5287 114.463 63.3611 113.234 69.296 110.553M62.3288 94.815C57.9994 95.9972 53.3674 102.532 56.2756 106.117C59.1838 109.702 65.5171 112.26 69.296 110.553" stroke="#F6EEDD" stroke-width="1.49109" stroke-linecap="round" stroke-linejoin="round"/>
<path d="M93.2569 116.802C96.3494 122.337 100.632 127.9 104.841 127.83C109.645 127.75 107.918 122.6 105.409 118.245C107.123 121.742 104.83 123.207 103.697 123.742C100.957 125.036 95.5597 120.55 93.2569 116.802Z" fill="#F6EEDD"/>
<path d="M89.7285 109.382C90.5244 111.411 91.7493 114.103 93.2569 116.802M103.069 114.663C103.814 115.674 104.647 116.923 105.409 118.245M93.2569 116.802C96.3494 122.337 100.632 127.9 104.841 127.83C109.645 127.75 107.918 122.6 105.409 118.245M93.2569 116.802C95.5597 120.55 100.957 125.036 103.697 123.742C104.83 123.207 107.123 121.742 105.409 118.245" stroke="#F6EEDD" stroke-width="1.49109" stroke-linecap="round" stroke-linejoin="round"/>
<path d="M144.705 109.876C148.083 113.362 148.835 117.36 148.696 120.891C148.27 124.806 146.648 126.711 142.859 128.579C138.559 130.699 132.344 129.398 129.488 128.016C128.135 127.02 126.085 125.485 123.859 123.774C128.115 125.738 137.252 127.563 139.759 119.148C142.265 110.733 135.342 105.852 131.567 104.464C137.905 105.765 142.719 107.827 144.705 109.876Z" fill="#F6EEDD"/>
<path d="M104.392 101.457C111.304 101.72 122.603 102.624 131.567 104.464M103.49 107.2C112.588 113.829 109.444 111.642 114.38 116.085C116.753 118.221 120.506 121.197 123.859 123.774M131.567 104.464C137.905 105.765 142.719 107.827 144.705 109.876C148.083 113.362 148.835 117.36 148.696 120.891C148.27 124.806 146.648 126.711 142.859 128.579C138.559 130.699 132.344 129.398 129.488 128.016C128.135 127.02 126.085 125.485 123.859 123.774M131.567 104.464C135.342 105.852 142.265 110.733 139.759 119.148C137.252 127.563 128.115 125.738 123.859 123.774M130.554 108.979C132.835 110.662 136.606 118.205 128.682 119.7" stroke="#F6EEDD" stroke-width="1.49109" stroke-linecap="round" stroke-linejoin="round"/>
</svg>
