<svg width="64" height="64" viewBox="0 0 64 64" fill="none" xmlns="http://www.w3.org/2000/svg">
<path d="M20 10.3943C20 6.89393 23.5001 6.61785 25 8.89413" stroke="#F6EEDD" stroke-width="1.5" stroke-linecap="round"/>
<path d="M12.4993 41.8943C11.7497 41.6443 11.3753 40.2693 11.5003 39.3943" stroke="#F6EEDD" stroke-width="1.5" stroke-linecap="round"/>
<path d="M52.5005 33.3943C52.9996 32.3943 53.5 30.5 52 29" stroke="#F6EEDD" stroke-width="1.5" stroke-linecap="round"/>
<path d="M31.5603 40.2617C31.8686 40.0258 32.3019 40.0659 32.5622 40.3428L32.612 40.4014L32.821 40.6885C33.9047 42.2403 35.5613 45.5472 37.0818 49.3203C38.7109 53.363 40.2317 58.0602 40.7439 61.9014C40.7983 62.3116 40.5105 62.6892 40.1003 62.7441C39.6899 62.7988 39.3125 62.5099 39.2575 62.0996C38.7697 58.441 37.302 53.8784 35.6911 49.8809C34.1743 46.1168 32.5718 42.9569 31.6052 41.5674L31.4206 41.3135L31.3777 41.25C31.1782 40.9264 31.252 40.4978 31.5603 40.2617Z" fill="#F6EEDD"/>
<path d="M29.1433 41.5908C29.4803 41.3976 29.9043 41.4945 30.1257 41.8037L30.1667 41.8682L30.4568 42.3799C31.9318 45.0255 33.7663 48.9445 33.7663 53.3574C33.7662 53.7715 33.4304 54.1074 33.0163 54.1074C32.6022 54.1074 32.2665 53.7715 32.2663 53.3574C32.2663 49.3331 30.5854 45.6932 29.1491 43.1152L28.8659 42.6143L28.8308 42.5459C28.6759 42.1988 28.8066 41.7841 29.1433 41.5908Z" fill="#F6EEDD"/>
<path d="M22.6374 41.71C22.9327 41.5367 23.3173 41.5846 23.5613 41.8428C23.805 42.1009 23.831 42.4875 23.6413 42.7725L23.5466 42.8877C22.3915 44.0429 21.7214 45.3679 21.5027 46.4971C21.277 47.662 21.5498 48.4308 21.9782 48.7666L22.1823 48.9131C22.649 49.216 23.053 49.2598 23.4167 49.1865C23.873 49.0946 24.3643 48.7964 24.8777 48.3145C25.9172 47.3384 26.7676 45.8918 27.3894 44.9453L27.4343 44.8838C27.6721 44.5908 28.0973 44.5184 28.4216 44.7266C28.7672 44.9487 28.8703 45.4077 28.6521 45.7559C27.986 46.8187 26.8191 48.6568 25.4685 49.9893C24.7955 50.6532 24.0204 51.2494 23.1833 51.5322C22.3592 51.8107 21.4796 51.78 20.657 51.2539L20.4929 51.1416L20.3913 51.0527C19.7367 50.3658 19.4796 49.4878 19.4538 48.6074C19.4283 47.7333 19.6278 46.8137 19.9304 45.9561C20.5296 44.2575 21.6043 42.6127 22.5173 41.7979L22.6374 41.71Z" fill="#F6EEDD"/>
<path d="M24.0163 45.3574C24.5685 45.3576 25.0163 45.8052 25.0163 46.3574C25.0162 46.9095 24.5684 47.3573 24.0163 47.3574C23.4641 47.3574 23.0164 46.9096 23.0163 46.3574C23.0163 45.8051 23.464 45.3574 24.0163 45.3574Z" fill="#F6EEDD"/>
<path d="M41.1316 37.6562L41.2068 37.6738C43.6233 38.3644 45.333 39.7426 46.2136 41.208C47.0336 42.5728 47.2358 44.2805 46.1091 45.334L45.9968 45.4336C45.2054 46.0928 43.9763 46.6159 42.2029 46.2168C40.5907 45.8538 38.5738 44.7388 36.0163 42.3857L35.4978 41.8994L35.445 41.8428C35.1987 41.5535 35.2061 41.1192 35.4743 40.8389C35.743 40.5585 36.1777 40.5317 36.4773 40.7656L36.5349 40.8154L36.8073 41.0693C38.1904 42.3209 39.8841 43.3242 41.3698 43.7939C42.1641 44.0449 42.8484 44.1271 43.3698 44.0547C43.8707 43.9851 44.1848 43.7829 44.3738 43.4697L44.4148 43.3936C44.6035 42.9887 44.578 42.2379 44.0173 41.3594C43.4807 40.5189 42.509 39.6804 41.0857 39.2061L40.7947 39.1152L40.7224 39.0908C40.3691 38.9501 40.1734 38.5619 40.28 38.1885C40.3867 37.8153 40.7575 37.5895 41.1316 37.6562Z" fill="#F6EEDD"/>
<path d="M21.3669 34.1562C21.7746 34.083 22.1647 34.3541 22.238 34.7617C22.3112 35.1693 22.0401 35.5595 21.6325 35.6328C21.1943 35.7116 20.6292 35.8543 19.9431 36.0332C19.2673 36.2095 18.4881 36.4167 17.656 36.6104C16.0984 36.9728 14.309 37.3002 12.5388 37.3057L12.1853 37.3027C12.128 37.3015 12.0704 37.2994 12.0134 37.2979C11.4072 37.2994 10.3033 37.513 9.37082 38.0889C8.46507 38.6484 7.76762 39.5113 7.76438 40.8594C7.76471 41.5031 7.91292 41.9792 8.15403 42.3174C8.39009 42.6482 8.76241 42.9132 9.3386 43.0586C10.5391 43.3612 12.535 43.1173 15.4695 41.9102C18.5971 40.4204 20.5369 38.8111 21.9665 37.3672C22.2578 37.073 22.7327 37.0703 23.0271 37.3613C23.3213 37.6527 23.3241 38.1275 23.0329 38.4219C21.5923 39.877 19.6695 41.4838 16.698 42.9795L16.0896 43.2773C12.8375 44.8227 11.5146 45.4036 10.4148 45.6865L9.95188 45.791C8.07159 46.1623 6.64579 45.7557 5.67844 44.8135C4.74719 43.9063 4.36004 42.6172 4.26926 41.4443C4.17751 40.2577 4.39901 38.6939 5.24875 37.4668C6.14092 36.1789 7.66216 35.3594 9.9011 35.6436L10.4099 35.7002C10.9293 35.7508 11.4779 35.7821 12.0437 35.7979L12.2185 35.8027L12.5378 35.8057C14.1372 35.8004 15.7975 35.5028 17.3161 35.1494C18.1241 34.9614 18.8806 34.7606 19.5652 34.582C20.2392 34.4062 20.8614 34.2472 21.3669 34.1562Z" fill="#F6EEDD"/>
<path d="M41.0163 40.3574C41.5685 40.3576 42.0163 40.8052 42.0163 41.3574C42.0162 41.9095 41.5684 42.3573 41.0163 42.3574C40.4641 42.3574 40.0164 41.9096 40.0163 41.3574C40.0163 40.8051 40.464 40.3574 41.0163 40.3574Z" fill="#F6EEDD"/>
<path d="M31.4363 37.1113C31.848 37.0673 32.2182 37.3656 32.2624 37.7773C32.3065 38.189 32.0081 38.5592 31.5964 38.6035C30.6614 38.7039 29.7731 39.0772 29.0515 39.5293C28.3166 39.9898 27.826 40.4862 27.6472 40.7637C27.4229 41.1118 26.9583 41.2123 26.6101 40.9883C26.2619 40.764 26.1612 40.2994 26.3855 39.9512C26.723 39.4272 27.4075 38.7892 28.2556 38.2578C29.1171 37.7181 30.2207 37.2418 31.4363 37.1113Z" fill="#F6EEDD"/>
<path d="M14.7507 38.5195C15.3029 38.5197 15.7507 38.9673 15.7507 39.5195C15.7506 40.0716 15.3028 40.5194 14.7507 40.5195C14.1985 40.5195 13.7508 40.0717 13.7507 39.5195C13.7507 38.9672 14.1984 38.5195 14.7507 38.5195Z" fill="#F6EEDD"/>
<path d="M32.9353 33.9746C33.2689 33.7759 33.6951 33.8656 33.9216 34.1709L33.9636 34.2354L34.1423 34.5527C34.3339 34.9123 34.5579 35.3897 34.7527 35.916C35.0092 36.6095 35.238 37.4487 35.238 38.2422C35.2379 38.6561 34.9019 38.9918 34.488 38.9922C34.0739 38.9922 33.7381 38.6563 33.738 38.2422C33.738 37.7054 33.5765 37.0586 33.3464 36.4365C33.1763 35.9768 32.9806 35.5627 32.821 35.2627L32.6755 35.0029L32.6394 34.9346C32.479 34.5901 32.6019 34.1734 32.9353 33.9746Z" fill="#F6EEDD"/>
<path d="M35.7497 33.9502C36.0245 33.6756 36.4591 33.6579 36.7536 33.8984L36.8103 33.9502L36.8884 34.0371C36.9717 34.138 37.0684 34.2762 37.1609 34.4199C37.2987 34.6341 37.466 34.9222 37.6345 35.2686C37.9279 35.8719 38.2339 36.6731 38.3796 37.5889L38.4314 37.9883L38.4353 38.0645C38.4355 38.4445 38.1476 38.771 37.7614 38.8105C37.3752 38.8498 37.0274 38.5881 36.9509 38.2158L36.9392 38.1406L36.8982 37.8223C36.7816 37.0914 36.5337 36.4345 36.2859 35.9248C36.1451 35.6354 36.0069 35.399 35.8991 35.2314C35.8382 35.1367 35.794 35.0741 35.7683 35.0391L35.7497 35.0107L35.698 34.9531C35.4579 34.6585 35.4752 34.2247 35.7497 33.9502Z" fill="#F6EEDD"/>
<path d="M30.8952 34.3867C31.2735 34.4222 31.5717 34.7398 31.5749 35.1279C31.578 35.5417 31.2446 35.8802 30.8308 35.8838L30.5251 35.8975C29.8114 35.9557 29.0969 36.189 28.4626 36.4883C27.739 36.8298 27.1672 37.2349 26.8796 37.4834C26.5664 37.754 26.0929 37.7192 25.822 37.4062C25.5512 37.0928 25.5857 36.6194 25.8991 36.3486L26.0593 36.2148C26.4651 35.8908 27.0838 35.4806 27.823 35.1318C28.6665 34.7338 29.7153 34.393 30.8181 34.3838L30.8952 34.3867Z" fill="#F6EEDD"/>
<path d="M53.0251 25.5215C53.9903 25.3337 54.8788 25.2792 55.5661 25.4287L55.9499 25.5244C57.6962 26.0138 58.8123 27.108 59.5515 28.2334L59.7038 28.4746L59.7292 28.5195L59.8679 28.8037C60.1696 29.4619 60.3161 30.0972 60.2663 30.7676C60.2175 31.4247 59.9846 32.0513 59.6345 32.7012L59.4773 32.9814C58.6327 34.4354 57.6574 35.4068 56.3279 35.9463C55.1941 36.4062 53.8694 36.5233 52.2839 36.458L51.5876 36.4199C47.7866 36.1589 44.486 35.648 40.5613 35.9697L40.4841 35.9727C40.1045 35.965 39.7847 35.6707 39.7527 35.2842C39.7188 34.8715 40.0257 34.5088 40.4382 34.4746L41.196 34.4219C44.9317 34.207 48.2217 34.6809 51.6306 34.918C54.1388 34.6976 55.2278 33.8732 55.6892 33.0586C56.1142 32.3074 56.1197 31.3733 55.904 30.4648L55.7986 30.0771C55.3555 28.6306 54.5872 27.9015 53.7097 27.6016C52.8508 27.3081 51.7568 27.381 50.5261 27.835L50.278 27.9307C46.9429 29.2791 42.113 31.1759 39.8904 32.5342C39.537 32.7497 39.076 32.6384 38.8601 32.2852C38.6443 31.9319 38.756 31.4709 39.1091 31.2549C41.4683 29.8132 46.4645 27.8545 49.7155 26.54L50.1618 26.3652C51.1943 25.9723 52.1658 25.6887 53.0251 25.5215Z" fill="#F6EEDD"/>
<path d="M24.0769 30.6396C24.1808 30.6553 24.2543 30.6882 24.2751 30.6973C24.3231 30.7181 24.3619 30.7406 24.3855 30.7549C24.4339 30.7843 24.4785 30.8167 24.5124 30.8428C24.5833 30.8973 24.664 30.9669 24.7478 31.0439C24.9179 31.2004 25.1327 31.4168 25.3601 31.6758C25.8094 32.1876 26.3498 32.911 26.6902 33.7051C26.8529 34.0855 26.6767 34.5262 26.2966 34.6895C25.916 34.8526 25.4746 34.6763 25.3113 34.2959C25.0577 33.7043 24.629 33.117 24.2331 32.666C24.0383 32.444 23.8603 32.2654 23.7322 32.1475C23.6676 32.0881 23.6222 32.0506 23.5984 32.0322C23.37 31.9038 23.2138 31.6624 23.2136 31.3818C23.2136 30.9676 23.5494 30.6318 23.9636 30.6318L24.0769 30.6396Z" fill="#F6EEDD"/>
<path d="M26.5652 29.2588C26.8752 29.0252 27.3079 29.068 27.5661 29.3467L27.615 29.4062L28.0905 30.0225C28.2855 30.2768 28.5048 30.5693 28.7116 30.8662C29.1153 31.4456 29.5664 32.171 29.7282 32.8184C29.8285 33.2201 29.584 33.627 29.1823 33.7275C28.7808 33.8278 28.3739 33.584 28.2732 33.1826C28.185 32.8301 27.886 32.3047 27.4812 31.7236C27.2838 31.4403 27.0836 31.1744 26.9001 30.9355L26.4177 30.3086L26.3747 30.2451C26.1777 29.92 26.255 29.4925 26.5652 29.2588Z" fill="#F6EEDD"/>
<path d="M32.8171 30.7637C33.7104 30.5369 34.9111 30.3403 36.114 30.4727C36.5255 30.5181 36.8232 30.8883 36.778 31.2998C36.7327 31.7114 36.3615 32.009 35.9499 31.9639C34.995 31.8588 33.9893 32.0129 33.1863 32.2168C32.7894 32.3176 32.4532 32.4278 32.2126 32.5156C32.0924 32.5595 31.9981 32.5969 31.9343 32.624C31.8386 32.6647 31.8616 32.6608 31.9167 32.624C31.5722 32.8537 31.1065 32.7604 30.8767 32.416C30.6471 32.0714 30.7401 31.6057 31.0847 31.376C31.1694 31.3195 31.2887 31.2691 31.3474 31.2441C31.438 31.2056 31.5566 31.1581 31.698 31.1064C31.9809 31.0031 32.3659 30.8782 32.8171 30.7637Z" fill="#F6EEDD"/>
<path d="M14.6677 24.3643C15.4318 23.8039 18.6084 22.3742 23.1618 25.9648L23.5642 26.2939L23.9743 26.6494L24.028 26.7041C24.2838 26.9851 24.291 27.4199 24.032 27.709C23.7729 27.9979 23.3401 28.0379 23.0329 27.8145L22.9724 27.7666L22.5984 27.4414L22.2331 27.1436L22.0505 27.0059C20.1594 25.6429 17.8623 25.9127 16.7048 27.082C16.2269 27.5651 16.1565 28.1672 16.4734 28.9219C16.8039 29.7089 17.5327 30.5582 18.4656 31.2568L18.5739 31.3555C18.7979 31.6041 18.8336 31.9799 18.6433 32.2695C18.4255 32.6006 17.9871 32.7048 17.6433 32.5078C16.5908 31.9042 15.1085 30.7674 14.2136 29.3867C13.7624 28.6906 13.4277 27.8805 13.4245 27.0137C13.4214 26.1224 13.7702 25.256 14.53 24.4805L14.5476 24.4629L14.6677 24.3643Z" fill="#F6EEDD"/>
<path d="M49.5007 30.3574C50.0529 30.3576 50.5007 30.8052 50.5007 31.3574C50.5006 31.9095 50.0528 32.3573 49.5007 32.3574C48.9485 32.3574 48.5008 31.9096 48.5007 31.3574C48.5007 30.8051 48.9484 30.3574 49.5007 30.3574Z" fill="#F6EEDD"/>
<path d="M20.0163 28.1445C20.5685 28.1447 21.0163 28.5923 21.0163 29.1445C21.0162 29.6966 20.5684 30.1444 20.0163 30.1445C19.4641 30.1445 19.0164 29.6967 19.0163 29.1445C19.0163 28.5922 19.464 28.1445 20.0163 28.1445Z" fill="#F6EEDD"/>
<path d="M35.5925 27.1113C35.9708 27.1496 36.2663 27.4691 36.2663 27.8574C36.2662 28.2454 35.9713 28.5648 35.5935 28.6035L35.5163 28.6074C34.843 28.6075 33.8905 28.7559 32.9685 28.9746C32.0397 29.195 31.2368 29.4648 30.8454 29.667L30.7751 29.6982C30.4217 29.8377 30.0131 29.6894 29.8347 29.3447C29.6446 28.9769 29.7882 28.5242 30.156 28.334L30.3825 28.2256C30.95 27.9717 31.7804 27.7155 32.6228 27.5156C33.5924 27.2856 34.6741 27.1075 35.5163 27.1074L35.5925 27.1113Z" fill="#F6EEDD"/>
<path d="M38.3288 18.9326C39.0929 18.6543 39.9353 18.5199 40.778 18.6699C41.6338 18.8223 42.4405 19.2599 43.1228 20.041L43.2478 20.1904C44.4922 21.7363 44.3091 23.4973 43.5866 24.9336C42.9017 26.2952 41.6991 27.4641 40.5671 28.1357L40.3415 28.2637C39.9979 28.4486 39.5698 28.339 39.3572 28.0117C39.1447 27.6844 39.2184 27.2485 39.5271 27.0098L39.6706 26.8838C40.0248 26.5334 40.511 25.8089 40.7878 24.9502C41.102 23.9752 41.0747 23.0634 40.5564 22.4199C40.0561 21.799 39.1953 21.6162 38.1667 21.7725C37.269 21.9089 36.443 22.2796 36.0105 22.5762L35.8493 22.6982C35.5635 22.9432 35.1402 22.9381 34.8601 22.6865C34.5799 22.4346 34.5303 22.0135 34.7439 21.7031C35.4731 20.6447 36.819 19.4828 38.3288 18.9326Z" fill="#F6EEDD"/>
<path d="M18.3239 1.23633C19.4879 0.601713 21.1754 0.639675 22.6755 1.05762C24.195 1.48105 25.7537 2.35615 26.6355 3.66992C28.232 6.04881 28.3616 7.49478 28.7195 9.63477L28.9118 10.709C29.4055 13.2927 30.4295 17.5253 32.6589 23.2314L33.195 24.5742L33.2204 24.6465C33.3276 25.0111 33.1433 25.4051 32.7839 25.5518C32.4244 25.6983 32.017 25.5456 31.8386 25.21L31.8064 25.1406L31.2614 23.7764C28.9962 17.9784 27.9485 13.6577 27.4392 10.9932L27.24 9.88184L27.1491 9.39062C26.6619 7.00365 25.7018 5.66147 24.6257 4.92773C23.4648 4.13623 22.0367 3.96266 20.5915 4.13867C19.363 4.28833 18.3915 5.08574 18.0193 6.53613C17.6362 8.02921 17.8861 10.2687 19.3523 13.165L19.6364 13.6982C20.3511 14.9797 21.4258 16.525 22.8659 18.4492C23.6875 19.5469 24.6176 20.7553 25.656 22.0967L29.0954 26.543L29.1384 26.6055C29.3389 26.9286 29.2655 27.3578 28.9577 27.5947C28.6499 27.8313 28.2167 27.792 27.9558 27.5156L27.906 27.457L24.4695 23.0146C23.4269 21.6679 22.4898 20.4501 21.6648 19.3477C20.2231 17.4213 19.0935 15.8063 18.322 14.4219L18.0134 13.8428C17.0015 11.8438 16.1243 10.6262 15.7702 7.44043C15.5964 5.87601 15.6684 4.61285 16.0925 3.58105C16.5288 2.51994 17.2989 1.79532 18.3239 1.23633Z" fill="#F6EEDD"/>
<path d="M37.0163 24.3574C37.5685 24.3576 38.0163 24.8052 38.0163 25.3574C38.0162 25.9095 37.5684 26.3573 37.0163 26.3574C36.4641 26.3574 36.0164 25.9096 36.0163 25.3574C36.0163 24.8051 36.464 24.3574 37.0163 24.3574Z" fill="#F6EEDD"/>
<path d="M23.2507 9.89453C23.8029 9.89468 24.2507 10.3423 24.2507 10.8945C24.2506 11.4466 23.8028 11.8944 23.2507 11.8945C22.6985 11.8945 22.2508 11.4467 22.2507 10.8945C22.2507 10.3422 22.6984 9.89453 23.2507 9.89453Z" fill="#F6EEDD"/>
</svg>
