<svg width="201" height="200" viewBox="0 0 201 200" fill="none" xmlns="http://www.w3.org/2000/svg">
<circle cx="144.291" cy="120.398" r="1.62234" fill="#F6EEDD" stroke="#F6EEDD" stroke-width="0.860987" stroke-linecap="round" stroke-linejoin="round"/>
<circle cx="34.0127" cy="138.432" r="1.62234" fill="#F6EEDD" stroke="#F6EEDD" stroke-width="0.860987" stroke-linecap="round" stroke-linejoin="round"/>
<circle cx="68.4185" cy="58.844" r="1.62234" fill="#F6EEDD" stroke="#F6EEDD" stroke-width="0.860987" stroke-linecap="round" stroke-linejoin="round"/>
<circle cx="59.6709" cy="108.663" r="1.47625" fill="#F6EEDD" stroke="#F6EEDD" stroke-width="0.860987" stroke-linecap="round" stroke-linejoin="round"/>
<circle cx="108.987" cy="102.044" r="1.47625" fill="#F6EEDD" stroke="#F6EEDD" stroke-width="0.860987" stroke-linecap="round" stroke-linejoin="round"/>
<circle cx="61.1471" cy="157.369" r="1.47625" fill="#F6EEDD" stroke="#F6EEDD" stroke-width="0.860987" stroke-linecap="round" stroke-linejoin="round"/>
<circle cx="113.404" cy="144.663" r="1.47625" fill="#F6EEDD" stroke="#F6EEDD" stroke-width="0.860987" stroke-linecap="round" stroke-linejoin="round"/>
<path d="M20.7478 127.912C6.0508 126.046 2.76536 139.511 2.95976 146.477C3.64016 150.819 8.15032 158.88 20.7478 156.392C24.8807 155.576 30.0473 153.558 35.4609 150.986C19.3626 156.097 14.3917 148.39 13.9185 143.898C13.9483 131.503 23.5784 128.503 28.9796 128.508C26.109 128.429 23.3314 128.24 20.7478 127.912Z" fill="#F6EEDD"/>
<path d="M65.0722 125.579C58.0593 126.84 42.9468 128.816 29.6457 128.525M65.0722 133.744C58.6716 138.12 46.5483 145.717 35.4609 150.986M29.6457 128.525C29.432 128.514 29.2096 128.509 28.9796 128.508M29.6457 128.525C29.4231 128.52 29.2011 128.515 28.9796 128.508M35.4609 150.986C30.0473 153.558 24.8807 155.576 20.7478 156.392C8.15032 158.88 3.64016 150.819 2.95976 146.477C2.76536 139.511 6.0508 126.046 20.7478 127.912C23.3314 128.24 26.109 128.429 28.9796 128.508M35.4609 150.986C19.3626 156.097 14.3917 148.39 13.9185 143.898C13.9483 131.503 23.5784 128.503 28.9796 128.508M27.0646 134.039C23.0817 134.924 21.8747 137.901 24.4502 143.02C26.5416 145.746 28.3071 146.428 31.5949 145.518" stroke="#F6EEDD" stroke-width="3.44395" stroke-linecap="round" stroke-linejoin="round"/>
<path d="M44.5302 96.3824C45.2089 95.7341 55.8661 88.7226 72.874 102.134C67.1171 99.7896 54.2105 96.507 48.6401 102.134C43.0697 107.762 48.7128 116.043 52.2307 119.481C44.8641 115.256 35.0827 106.025 44.5302 96.3824Z" fill="#F6EEDD"/>
<path d="M53.9422 120.397C53.3945 120.125 52.8203 119.819 52.2307 119.481M75.7571 104.563C74.7779 103.686 73.8166 102.878 72.874 102.134M72.874 102.134C55.8661 88.7226 45.2089 95.7341 44.5302 96.3824C35.0827 106.025 44.8641 115.256 52.2307 119.481M72.874 102.134C67.1171 99.7896 54.2105 96.507 48.6401 102.134C43.0697 107.762 48.7128 116.043 52.2307 119.481" stroke="#F6EEDD" stroke-width="3.44395" stroke-linecap="round" stroke-linejoin="round"/>
<path d="M42.7761 39.5104C41.5281 28.2783 47.3819 21.3101 50.4648 19.23C62.4135 14.8892 75.082 23.1727 77.2201 26.5251C79.1801 28.6498 83.1946 39.6286 84.525 47.5849C80.72 42.3111 70.2285 32.1147 58.702 33.5189C47.1755 34.9231 48.0948 52.7561 49.9952 61.4971C46.1709 53.9423 43.5005 46.0296 42.7761 39.5104Z" fill="#F6EEDD"/>
<path d="M84.897 106.145C82.7056 101.762 75.9827 91.1023 66.6224 83.5251C60.3549 78.4515 54.4071 70.2125 49.9952 61.4971M90.9876 103.421C88.9531 89.0339 86.0788 64.3013 84.8841 50.3478C84.8104 49.4866 84.6878 48.5583 84.525 47.5849M55.7765 60.7261C55.1426 55.8015 55.5863 45.5135 62.432 43.7582C69.2777 42.0029 75.5237 48.5365 77.791 52.0227M49.9952 61.4971C46.1709 53.9423 43.5005 46.0296 42.7761 39.5104C41.5281 28.2783 47.3819 21.3101 50.4648 19.23C62.4135 14.8892 75.082 23.1727 77.2201 26.5251C79.1801 28.6498 83.1946 39.6286 84.525 47.5849M49.9952 61.4971C48.0948 52.7561 47.1755 34.9231 58.702 33.5189C70.2285 32.1147 80.72 42.3111 84.525 47.5849" stroke="#F6EEDD" stroke-width="3.44395" stroke-linecap="round" stroke-linejoin="round"/>
<path d="M99.4842 96.2502C104.311 89.243 113.965 80.5545 122.501 90.3285C130.822 99.8556 120.918 108.571 112.947 112.87C116.69 109.979 122.787 102.475 117.234 95.5834C111.681 88.6916 103.087 93.1564 99.4842 96.2502Z" fill="#F6EEDD"/>
<path d="M98.2003 98.259C98.5773 97.6188 99.0072 96.9427 99.4842 96.2502M110.039 114.289C110.95 113.893 111.933 113.417 112.947 112.87M99.4842 96.2502C104.311 89.243 113.965 80.5545 122.501 90.3285C130.822 99.8556 120.918 108.571 112.947 112.87M99.4842 96.2502C103.087 93.1564 111.681 88.6916 117.234 95.5834C122.787 102.475 116.69 109.979 112.947 112.87" stroke="#F6EEDD" stroke-width="3.44395" stroke-linecap="round" stroke-linejoin="round"/>
<path d="M53.187 148.743C47.2557 154.036 41.3772 164.683 48.6981 172.363C58.3025 179.356 69.1267 170.033 74.1122 162.078C70.9378 167.143 61.2923 169.126 54.9397 167.143C48.5872 165.161 48.9326 153.618 53.187 148.743Z" fill="#F6EEDD"/>
<path d="M71.1902 133.593C73.715 131.412 80.5444 127.034 87.6633 126.975M96.9296 125.063C98.3759 127.49 101.268 133.579 101.268 138.521M104.21 124.548C104.725 125.063 108.696 130.652 109.431 137.859M75.1616 146.169C77.079 143.192 82.9109 137.025 90.8993 136.167M88.2519 120.65C88.6931 120.356 91.5612 117.12 99.5771 118.003M84.7954 113.443C86.7075 111.825 92.0318 108.707 98.0327 109.178M65.8955 116.752C66.2632 116.752 70.9698 119.4 73.176 124.548M75.4557 111.752C76.7059 113.958 79.221 118.988 79.2798 121.459M58.007 145.702C56.6048 146.141 54.8937 147.22 53.187 148.743M76.4119 157.42C75.9448 158.805 75.1566 160.411 74.1122 162.078M53.187 148.743C47.2557 154.036 41.3772 164.683 48.6981 172.363C58.3025 179.356 69.1267 170.033 74.1122 162.078M53.187 148.743C48.9326 153.618 48.5872 165.161 54.9397 167.143C61.2923 169.126 70.9378 167.143 74.1122 162.078" stroke="#F6EEDD" stroke-width="3.44395" stroke-linecap="round" stroke-linejoin="round"/>
<path d="M107.865 150.454C115.996 154.631 125.576 157.892 130.574 154.448C136.278 150.518 130.095 145.714 123.606 142.488C128.455 145.318 126.871 148.907 125.939 150.454C123.682 154.195 113.621 153.116 107.865 150.454Z" fill="#F6EEDD"/>
<path d="M97.7072 144.361C100.282 146.163 103.901 148.417 107.865 150.454M117.937 140.055C119.639 140.675 121.637 141.509 123.606 142.488M107.865 150.454C115.996 154.631 125.576 157.892 130.574 154.448C136.278 150.518 130.095 145.714 123.606 142.488M107.865 150.454C113.621 153.116 123.682 154.195 125.939 150.454C126.871 148.907 128.455 145.318 123.606 142.488" stroke="#F6EEDD" stroke-width="3.44395" stroke-linecap="round" stroke-linejoin="round"/>
<path d="M84.0022 152.902C87.831 156.084 97.0101 167.491 103.096 187.659M93.549 149.62C101.007 159.366 117.178 182.438 122.19 196.758" stroke="#F6EEDD" stroke-width="3.44395" stroke-linecap="round" stroke-linejoin="round"/>
<path d="M164.105 101.076C170.943 102.565 175.037 106.765 177.688 111.116C180.3 116.156 179.875 119.738 176.817 125.004C173.346 130.98 164.846 134.379 160.313 134.999C157.894 134.883 154.209 134.677 150.171 134.399C156.848 133.361 169.274 128.259 165.567 116.156C161.86 104.053 149.653 103.718 144.013 105.064C152.66 101.568 160.086 100.201 164.105 101.076Z" fill="#F6EEDD"/>
<path d="M108.987 123.142C117.496 117.942 131.782 110.009 144.013 105.064M112.488 130.757C128.701 131.454 123.181 131.338 132.653 132.733C137.207 133.403 144.089 133.982 150.171 134.399M144.013 105.064C152.66 101.568 160.086 100.201 164.105 101.076C170.943 102.565 175.037 106.765 177.688 111.116C180.3 116.156 179.875 119.738 176.817 125.004C173.346 130.98 164.846 134.379 160.313 134.999C157.894 134.883 154.209 134.677 150.171 134.399M144.013 105.064C149.653 103.718 161.86 104.053 165.567 116.156C169.274 128.259 156.848 133.361 150.171 134.399M146.4 111.293C150.482 111.494 161.029 117.54 152.709 125.658" stroke="#F6EEDD" stroke-width="3.44395" stroke-linecap="round" stroke-linejoin="round"/>
</svg>
