<svg width="314" height="583" viewBox="0 0 314 583" fill="none" xmlns="http://www.w3.org/2000/svg">
<circle cx="222.471" cy="161.413" r="2.51237" fill="#F6EEDD" stroke="#F6EEDD" stroke-width="1.33333" stroke-linecap="round" stroke-linejoin="round"/>
<circle cx="51.6928" cy="189.341" r="2.51237" fill="#F6EEDD" stroke="#F6EEDD" stroke-width="1.33333" stroke-linecap="round" stroke-linejoin="round"/>
<circle cx="104.974" cy="66.0906" r="2.51237" fill="#F6EEDD" stroke="#F6EEDD" stroke-width="1.33333" stroke-linecap="round" stroke-linejoin="round"/>
<circle cx="91.4275" cy="143.239" r="2.28613" fill="#F6EEDD" stroke="#F6EEDD" stroke-width="1.33333" stroke-linecap="round" stroke-linejoin="round"/>
<circle cx="167.8" cy="132.989" r="2.28613" fill="#F6EEDD" stroke="#F6EEDD" stroke-width="1.33333" stroke-linecap="round" stroke-linejoin="round"/>
<circle cx="93.7139" cy="218.666" r="2.28613" fill="#F6EEDD" stroke="#F6EEDD" stroke-width="1.33333" stroke-linecap="round" stroke-linejoin="round"/>
<circle cx="174.638" cy="198.989" r="2.28613" fill="#F6EEDD" stroke="#F6EEDD" stroke-width="1.33333" stroke-linecap="round" stroke-linejoin="round"/>
<path d="M31.1509 173.05C8.39097 170.16 3.3031 191.013 3.60416 201.801C4.65783 208.525 11.6423 221.008 31.1509 217.155C37.5512 215.891 45.5523 212.766 53.9358 208.782C29.0058 216.698 21.3078 204.763 20.575 197.806C20.6212 178.611 35.5344 173.966 43.8987 173.974C39.4533 173.85 35.1518 173.558 31.1509 173.05Z" fill="#F6EEDD"/>
<path d="M99.7922 169.438C88.9319 171.39 65.5285 174.45 44.9303 174M99.7922 182.082C89.8801 188.858 71.1058 200.623 53.9358 208.782M44.9303 174C44.5994 173.983 44.255 173.974 43.8987 173.974M44.9303 174C44.5856 173.992 44.2417 173.983 43.8987 173.974M53.9358 208.782C45.5523 212.766 37.5512 215.891 31.1509 217.155C11.6423 221.008 4.65783 208.525 3.60416 201.801C3.3031 191.013 8.39097 170.16 31.1509 173.05C35.1518 173.558 39.4533 173.85 43.8987 173.974M53.9358 208.782C29.0058 216.698 21.3078 204.763 20.575 197.806C20.6212 178.611 35.5344 173.966 43.8987 173.974M40.9332 182.539C34.7652 183.91 32.8961 188.52 36.8844 196.447C40.1232 200.669 42.8573 201.725 47.9489 200.315" stroke="#F6EEDD" stroke-width="5.33333" stroke-linecap="round" stroke-linejoin="round"/>
<path d="M67.9802 124.222C69.0313 123.218 85.5352 112.36 111.874 133.13C102.959 129.499 82.9713 124.415 74.3449 133.13C65.7186 141.844 74.4575 154.669 79.9053 159.993C68.4973 153.45 53.3497 139.155 67.9802 124.222Z" fill="#F6EEDD"/>
<path d="M82.5557 161.411C81.7077 160.99 80.8184 160.516 79.9053 159.993M116.339 136.891C114.822 135.532 113.334 134.281 111.874 133.13M111.874 133.13C85.5352 112.36 69.0313 123.218 67.9802 124.222C53.3497 139.155 68.4973 153.45 79.9053 159.993M111.874 133.13C102.959 129.499 82.9713 124.415 74.3449 133.13C65.7186 141.844 74.4575 154.669 79.9053 159.993" stroke="#F6EEDD" stroke-width="5.33333" stroke-linecap="round" stroke-linejoin="round"/>
<path d="M65.2642 36.1498C63.3315 18.7556 72.3967 7.96467 77.1709 4.74346C95.6748 -1.97882 115.293 10.8491 118.605 16.0407C121.64 19.331 127.857 36.3328 129.917 48.6541C124.025 40.4871 107.777 24.6968 89.9272 26.8714C72.0771 29.046 73.5007 56.6623 76.4438 70.1987C70.5214 58.4993 66.386 46.2456 65.2642 36.1498Z" fill="#F6EEDD"/>
<path d="M130.493 139.341C127.099 132.554 116.688 116.046 102.193 104.311C92.4868 96.4545 83.2761 83.6955 76.4438 70.1987M139.925 135.123C136.774 112.843 132.323 74.5413 130.473 52.9328C130.359 51.5991 130.169 50.1616 129.917 48.6541M85.3967 69.0047C84.4151 61.3784 85.1023 45.4463 95.7036 42.728C106.305 40.0097 115.977 50.1277 119.489 55.5265M76.4438 70.1987C70.5214 58.4993 66.386 46.2456 65.2642 36.1498C63.3315 18.7556 72.3967 7.96467 77.1709 4.74346C95.6748 -1.97882 115.293 10.8491 118.605 16.0407C121.64 19.331 127.857 36.3328 129.917 48.6541M76.4438 70.1987C73.5007 56.6623 72.0771 29.046 89.9272 26.8714C107.777 24.6968 124.025 40.4871 129.917 48.6541" stroke="#F6EEDD" stroke-width="5.33333" stroke-linecap="round" stroke-linejoin="round"/>
<path d="M153.083 124.018C160.558 113.167 175.508 99.7118 188.727 114.848C201.613 129.602 186.276 143.099 173.932 149.756C179.728 145.279 189.169 133.658 180.57 122.986C171.971 112.313 158.662 119.227 153.083 124.018Z" fill="#F6EEDD"/>
<path d="M151.094 127.129C151.678 126.138 152.344 125.091 153.083 124.018M169.428 151.954C170.838 151.34 172.361 150.603 173.932 149.756M153.083 124.018C160.558 113.167 175.508 99.7118 188.727 114.848C201.613 129.602 186.276 143.099 173.932 149.756M153.083 124.018C158.662 119.227 171.971 112.313 180.57 122.986C189.169 133.658 179.728 145.279 173.932 149.756" stroke="#F6EEDD" stroke-width="5.33333" stroke-linecap="round" stroke-linejoin="round"/>
<path d="M81.3863 205.309C72.201 213.506 63.0975 229.994 74.4347 241.887C89.3083 252.716 106.071 238.28 113.791 225.959C108.875 233.804 93.9382 236.875 84.1006 233.804C74.263 230.733 74.7979 212.858 81.3863 205.309Z" fill="#F6EEDD"/>
<path d="M109.266 181.848C113.176 178.469 123.752 171.69 134.777 171.599M149.127 168.637C151.366 172.396 155.846 181.825 155.846 189.478M160.401 167.84C161.198 168.637 167.348 177.292 168.487 188.453M115.416 201.322C118.386 196.713 127.417 187.162 139.788 185.834M135.688 161.804C136.371 161.348 140.813 156.337 153.227 157.704M130.336 150.643C133.297 148.138 141.542 143.309 150.835 144.038M101.067 155.768C101.636 155.768 108.925 159.868 112.342 167.84M115.872 148.024C117.808 151.44 121.703 159.23 121.794 163.057M88.8506 200.6C86.6791 201.279 84.0293 202.951 81.3863 205.309M117.353 218.747C116.629 220.89 115.409 223.378 113.791 225.959M81.3863 205.309C72.201 213.506 63.0975 229.994 74.4347 241.887C89.3083 252.716 106.071 238.28 113.791 225.959M81.3863 205.309C74.7979 212.858 74.263 230.733 84.1006 233.804C93.9382 236.875 108.875 233.804 113.791 225.959" stroke="#F6EEDD" stroke-width="5.33333" stroke-linecap="round" stroke-linejoin="round"/>
<path d="M166.062 207.958C178.653 214.427 193.49 219.477 201.23 214.144C210.063 208.058 200.487 200.618 190.438 195.622C197.947 200.006 195.495 205.564 194.051 207.958C190.556 213.751 174.976 212.081 166.062 207.958Z" fill="#F6EEDD"/>
<path d="M150.331 198.524C154.319 201.313 159.924 204.804 166.062 207.958M181.66 191.854C184.296 192.814 187.389 194.106 190.438 195.622M166.062 207.958C178.653 214.427 193.49 219.477 201.23 214.144C210.063 208.058 200.487 200.618 190.438 195.622M166.062 207.958C174.976 212.081 190.556 213.751 194.051 207.958C195.495 205.564 197.947 200.006 190.438 195.622" stroke="#F6EEDD" stroke-width="5.33333" stroke-linecap="round" stroke-linejoin="round"/>
<path d="M129.107 211.749C135.037 216.677 149.252 234.342 158.676 265.574M143.892 206.667C155.442 221.759 180.483 257.488 188.245 279.665" stroke="#F6EEDD" stroke-width="5.33333" stroke-linecap="round" stroke-linejoin="round"/>
<path d="M253.156 131.492C263.745 133.797 270.085 140.301 274.191 147.039C278.236 154.844 277.577 160.391 272.841 168.547C267.466 177.802 254.303 183.065 247.284 184.025C243.538 183.846 237.83 183.526 231.577 183.096C241.917 181.488 261.16 173.587 255.42 154.844C249.679 136.101 230.775 135.583 222.041 137.667C235.432 132.253 246.932 130.137 253.156 131.492Z" fill="#F6EEDD"/>
<path d="M167.8 165.662C180.977 157.61 203.1 145.325 222.041 137.667M173.222 177.456C198.329 178.536 189.78 178.356 204.448 180.516C211.501 181.554 222.158 182.449 231.577 183.096M222.041 137.667C235.432 132.253 246.932 130.137 253.156 131.492C263.745 133.797 270.085 140.301 274.191 147.039C278.236 154.844 277.577 160.391 272.841 168.547C267.466 177.802 254.303 183.065 247.284 184.025C243.538 183.846 237.83 183.526 231.577 183.096M222.041 137.667C230.775 135.583 249.679 136.101 255.42 154.844C261.16 173.587 241.917 181.488 231.577 183.096M225.738 147.314C232.059 147.625 248.392 156.987 235.507 169.56" stroke="#F6EEDD" stroke-width="5.33333" stroke-linecap="round" stroke-linejoin="round"/>
<path d="M178.291 390.678C187.969 414.434 199.79 488.208 186.593 580.064M229.788 390.678C254.423 433.571 305.146 530.046 310.953 572.806" stroke="#F6EEDD" stroke-width="5.33333" stroke-linecap="round" stroke-linejoin="round"/>
</svg>
