<svg width="209" height="419" viewBox="0 0 209 419" fill="none" xmlns="http://www.w3.org/2000/svg">
<circle cx="143.339" cy="104.794" r="1.62234" fill="#F6EEDD" stroke="#F6EEDD" stroke-width="0.860987" stroke-linecap="round" stroke-linejoin="round"/>
<circle cx="33.0608" cy="122.828" r="1.62234" fill="#F6EEDD" stroke="#F6EEDD" stroke-width="0.860987" stroke-linecap="round" stroke-linejoin="round"/>
<circle cx="67.4668" cy="43.2405" r="1.62234" fill="#F6EEDD" stroke="#F6EEDD" stroke-width="0.860987" stroke-linecap="round" stroke-linejoin="round"/>
<circle cx="58.7192" cy="93.0593" r="1.47625" fill="#F6EEDD" stroke="#F6EEDD" stroke-width="0.860987" stroke-linecap="round" stroke-linejoin="round"/>
<circle cx="108.036" cy="86.4401" r="1.47625" fill="#F6EEDD" stroke="#F6EEDD" stroke-width="0.860987" stroke-linecap="round" stroke-linejoin="round"/>
<circle cx="60.1955" cy="141.765" r="1.47625" fill="#F6EEDD" stroke="#F6EEDD" stroke-width="0.860987" stroke-linecap="round" stroke-linejoin="round"/>
<circle cx="112.452" cy="129.059" r="1.47625" fill="#F6EEDD" stroke="#F6EEDD" stroke-width="0.860987" stroke-linecap="round" stroke-linejoin="round"/>
<path d="M19.796 112.308C5.09902 110.442 1.81358 123.908 2.00798 130.874C2.68838 135.216 7.19854 143.277 19.796 140.789C23.929 139.972 29.0956 137.955 34.5091 135.382C18.4108 140.493 13.4399 132.787 12.9667 128.294C12.9965 115.899 22.6266 112.9 28.0278 112.905C25.1572 112.825 22.3796 112.636 19.796 112.308Z" fill="#F6EEDD"/>
<path d="M64.1204 109.976C57.1075 111.236 41.995 113.212 28.6939 112.921M64.1204 118.14C57.7198 122.516 45.5965 130.113 34.5091 135.382M28.6939 112.921C28.4803 112.911 28.2579 112.905 28.0278 112.905M28.6939 112.921C28.4713 112.917 28.2493 112.911 28.0278 112.905M34.5091 135.382C29.0956 137.955 23.929 139.972 19.796 140.789C7.19854 143.277 2.68838 135.216 2.00798 130.874C1.81358 123.908 5.09902 110.442 19.796 112.308C22.3796 112.636 25.1572 112.825 28.0278 112.905M34.5091 135.382C18.4108 140.493 13.4399 132.787 12.9667 128.294C12.9965 115.899 22.6266 112.9 28.0278 112.905M26.1128 118.436C22.1299 119.321 20.9229 122.298 23.4984 127.417C25.5898 130.143 27.3553 130.825 30.6431 129.914" stroke="#F6EEDD" stroke-width="3.44395" stroke-linecap="round" stroke-linejoin="round"/>
<path d="M43.5784 80.7789C44.2571 80.1306 54.9143 73.1191 71.9222 86.5309C66.1653 84.1861 53.2588 80.9034 47.6883 86.5309C42.1179 92.1583 47.761 100.44 51.2789 103.877C43.9123 99.6527 34.1309 90.4218 43.5784 80.7789Z" fill="#F6EEDD"/>
<path d="M52.9904 104.793C52.4428 104.522 51.8685 104.215 51.2789 103.877M74.8054 88.9598C73.8261 88.0821 72.8648 87.2741 71.9222 86.5309M71.9222 86.5309C54.9143 73.1191 44.2571 80.1306 43.5784 80.7789C34.1309 90.4218 43.9123 99.6527 51.2789 103.877M71.9222 86.5309C66.1653 84.1861 53.2588 80.9034 47.6883 86.5309C42.1179 92.1583 47.761 100.44 51.2789 103.877" stroke="#F6EEDD" stroke-width="3.44395" stroke-linecap="round" stroke-linejoin="round"/>
<path d="M41.8242 23.9069C40.5762 12.6747 46.43 5.70658 49.5129 3.62652C61.4616 -0.71433 74.1301 7.56918 76.2682 10.9216C78.2282 13.0463 82.2427 24.025 83.5731 31.9814C79.7681 26.7076 69.2766 16.5112 57.7501 17.9154C46.2236 19.3196 47.1429 37.1526 49.0433 45.8936C45.219 38.3388 42.5486 30.4261 41.8242 23.9069Z" fill="#F6EEDD"/>
<path d="M83.9451 90.5418C81.7537 86.1589 75.0308 75.4987 65.6705 67.9216C59.403 62.848 53.4552 54.609 49.0433 45.8936M90.0356 87.8178C88.0012 73.4304 85.1269 48.6978 83.9322 34.7443C83.8585 33.8831 83.7359 32.9548 83.5731 31.9814M54.8246 45.1225C54.1907 40.1979 54.6344 29.9099 61.4801 28.1546C68.3258 26.3993 74.5718 32.933 76.839 36.4192M49.0433 45.8936C45.219 38.3388 42.5486 30.4261 41.8242 23.9069C40.5762 12.6747 46.43 5.70658 49.5129 3.62652C61.4616 -0.71433 74.13 7.56918 76.2682 10.9216C78.2282 13.0463 82.2427 24.025 83.5731 31.9814M49.0433 45.8936C47.1429 37.1526 46.2236 19.3196 57.7501 17.9154C69.2766 16.5112 79.7681 26.7076 83.5731 31.9814" stroke="#F6EEDD" stroke-width="3.44395" stroke-linecap="round" stroke-linejoin="round"/>
<path d="M98.5325 80.6467C103.359 73.6394 113.013 64.951 121.55 74.725C129.87 84.2521 119.966 92.9679 111.996 97.2663C115.738 94.3758 121.835 86.8717 116.282 79.9799C110.729 73.0881 102.135 77.5528 98.5325 80.6467Z" fill="#F6EEDD"/>
<path d="M97.2485 82.6555C97.6255 82.0153 98.0554 81.3392 98.5325 80.6467M109.087 98.6856C109.998 98.2891 110.981 97.8135 111.996 97.2663M98.5325 80.6467C103.359 73.6394 113.013 64.951 121.55 74.725C129.87 84.2521 119.966 92.9679 111.996 97.2663M98.5325 80.6467C102.135 77.5528 110.729 73.0881 116.282 79.9799C121.835 86.8717 115.738 94.3758 111.996 97.2663" stroke="#F6EEDD" stroke-width="3.44395" stroke-linecap="round" stroke-linejoin="round"/>
<path d="M52.2351 133.14C46.3038 138.433 40.4253 149.08 47.7462 156.759C57.3506 163.752 68.1748 154.43 73.1603 146.474C69.9859 151.54 60.3404 153.523 53.9878 151.54C47.6353 149.557 47.9807 138.014 52.2351 133.14Z" fill="#F6EEDD"/>
<path d="M70.2383 117.99C72.7631 115.808 79.5925 111.43 86.7114 111.371M95.9777 109.459C97.424 111.886 100.317 117.975 100.317 122.917M103.258 108.944C103.773 109.459 107.744 115.048 108.48 122.255M74.2097 130.565C76.1271 127.589 81.959 121.421 89.9474 120.564M87.2999 105.047C87.7412 104.752 90.6093 101.517 98.6252 102.399M83.8435 97.8396C85.7556 96.2217 91.0799 93.1035 97.0808 93.5742M64.9436 101.149C65.3113 101.149 70.0179 103.796 72.2241 108.944M74.5038 96.1482C75.754 98.3545 78.2691 103.385 78.3279 105.856M57.0551 130.099C55.6529 130.537 53.9418 131.617 52.2351 133.14M75.46 141.817C74.9929 143.201 74.2047 144.808 73.1603 146.474M52.2351 133.14C46.3038 138.433 40.4253 149.08 47.7462 156.759C57.3506 163.752 68.1748 154.43 73.1603 146.474M52.2351 133.14C47.9807 138.014 47.6353 149.557 53.9878 151.54C60.3404 153.523 69.9859 151.54 73.1603 146.474" stroke="#F6EEDD" stroke-width="3.44395" stroke-linecap="round" stroke-linejoin="round"/>
<path d="M106.913 134.85C115.044 139.028 124.625 142.289 129.623 138.845C135.326 134.914 129.143 130.11 122.654 126.884C127.503 129.715 125.92 133.304 124.987 134.85C122.73 138.591 112.669 137.512 106.913 134.85Z" fill="#F6EEDD"/>
<path d="M96.7554 128.758C99.3307 130.559 102.95 132.814 106.913 134.85M116.986 124.451C118.687 125.071 120.685 125.905 122.654 126.884M106.913 134.85C115.044 139.028 124.625 142.289 129.623 138.845C135.326 134.914 129.143 130.11 122.654 126.884M106.913 134.85C112.669 137.512 122.73 138.591 124.987 134.85C125.92 133.304 127.503 129.715 122.654 126.884" stroke="#F6EEDD" stroke-width="3.44395" stroke-linecap="round" stroke-linejoin="round"/>
<path d="M83.0505 137.298C86.8793 140.481 96.0585 151.888 102.144 172.055M92.5973 134.017C100.056 143.762 116.226 166.834 121.238 181.154" stroke="#F6EEDD" stroke-width="3.44395" stroke-linecap="round" stroke-linejoin="round"/>
<path d="M163.153 85.4728C169.991 86.9615 174.085 91.1615 176.736 95.5123C179.349 100.552 178.923 104.134 175.865 109.401C172.394 115.377 163.894 118.776 159.361 119.396C156.942 119.28 153.257 119.073 149.219 118.796C155.896 117.758 168.322 112.655 164.615 100.552C160.908 88.4491 148.701 88.1147 143.061 89.4604C151.708 85.9642 159.134 84.5979 163.153 85.4728Z" fill="#F6EEDD"/>
<path d="M108.036 107.538C116.544 102.338 130.83 94.4057 143.061 89.4604M111.537 115.154C127.749 115.851 122.229 115.735 131.701 117.129C136.255 117.8 143.137 118.378 149.219 118.796M143.061 89.4604C151.708 85.9642 159.134 84.5979 163.153 85.4728C169.991 86.9615 174.085 91.1615 176.736 95.5123C179.349 100.552 178.923 104.134 175.865 109.401C172.394 115.377 163.894 118.776 159.361 119.396C156.942 119.28 153.257 119.073 149.219 118.796M143.061 89.4604C148.701 88.1147 160.908 88.4491 164.615 100.552C168.322 112.655 155.896 117.758 149.219 118.796M145.448 95.6897C149.53 95.8904 160.077 101.936 151.757 110.055" stroke="#F6EEDD" stroke-width="3.44395" stroke-linecap="round" stroke-linejoin="round"/>
<path d="M121.238 294.2C127.488 309.54 135.121 357.179 126.599 416.494M154.492 294.2C170.4 321.897 203.154 384.195 206.904 411.807" stroke="#F6EEDD" stroke-width="3.44395" stroke-linecap="round" stroke-linejoin="round"/>
</svg>
